inDegrees=no
num_controls=7
num_derivatives=13
num_iterations=109
num_multipliers=7
num_parameters=0
num_slacks=7
num_states=26
objective=0.449373
objective_accelerations=0.049044
objective_balance=0.007690
objective_effort=0.036902
objective_height=0.350791
objective_ligament=0.004946
solver_duration=1631.913117
status=Solve_Succeeded
success=true
DataType=double
version=3
OpenSimVersion=4.5
endheader
time	/jointset/ground_pelvis/pelvis_tilt/value	/jointset/ground_pelvis/pelvis_tx/value	/jointset/ground_pelvis/pelvis_ty/value	/jointset/hip_l/hip_flexion_l/value	/jointset/hip_l/hip_adduction_l/value	/jointset/hip_l/hip_rotation_l/value	/jointset/back/lumbar_extension/value	/jointset/patellofemoral_l/patellar_flexion_l/value	/jointset/knee_l/knee_flexion_l/value	/jointset/knee_l/knee_adduction_l/value	/jointset/knee_l/knee_rotation_l/value	/jointset/ankle_l/ankle_angle_l/value	/jointset/subtalar_l/subtalar_angle_l/value	/jointset/ground_pelvis/pelvis_tilt/speed	/jointset/ground_pelvis/pelvis_tx/speed	/jointset/ground_pelvis/pelvis_ty/speed	/jointset/hip_l/hip_flexion_l/speed	/jointset/hip_l/hip_adduction_l/speed	/jointset/hip_l/hip_rotation_l/speed	/jointset/back/lumbar_extension/speed	/jointset/patellofemoral_l/patellar_flexion_l/speed	/jointset/knee_l/knee_flexion_l/speed	/jointset/knee_l/knee_adduction_l/speed	/jointset/knee_l/knee_rotation_l/speed	/jointset/ankle_l/ankle_angle_l/speed	/jointset/subtalar_l/subtalar_angle_l/speed	/forceset/tau_hip_flexion_l	/forceset/tau_hip_adduction_l	/forceset/tau_hip_rotation_l	/forceset/tau_knee_flexion_l	/forceset/tau_ankle_angle_l	/forceset/tau_subtalar_angle_l	/forceset/tau_lumbar_extension	lambda_cid13_p0	lambda_cid13_p1	lambda_cid13_p2	lambda_cid13_p3	lambda_cid13_p4	lambda_cid13_p5	lambda_cid14_p0	/jointset/ground_pelvis/pelvis_tilt/accel	/jointset/ground_pelvis/pelvis_tx/accel	/jointset/ground_pelvis/pelvis_ty/accel	/jointset/hip_l/hip_flexion_l/accel	/jointset/hip_l/hip_adduction_l/accel	/jointset/hip_l/hip_rotation_l/accel	/jointset/back/lumbar_extension/accel	/jointset/patellofemoral_l/patellar_flexion_l/accel	/jointset/knee_l/knee_flexion_l/accel	/jointset/knee_l/knee_adduction_l/accel	/jointset/knee_l/knee_rotation_l/accel	/jointset/ankle_l/ankle_angle_l/accel	/jointset/subtalar_l/subtalar_angle_l/accel	gamma_cid13_p0	gamma_cid13_p1	gamma_cid13_p2	gamma_cid13_p3	gamma_cid13_p4	gamma_cid13_p5	gamma_cid14_p0
0	-0.1596658414554712	0.05838827767521703	0.8979820594455499	0.3774924667018715	-0.259380098617162	-0.2688247331950473	-0.01265067647494873	0.03223648243721465	0.03223648243721463	-0.174531934920286	0.1705715199798913	-0.04231377076293093	-0.009552674429415584	0	0	0	0	0	0	0	0	0	0	0	0	0	0.1554749511004272	-0.07176249200479136	-0.05231541997874912	-0.3139757677297169	0.3223912795364575	-0.05561364839073992	-0.09786643980322583	60.75820477953155	7.261333976108359	5.58275779336953	-7.027787497915458	-591.3645741699871	-63.96785497940321	-38.9500532850144	-4.418714887610675	-2.120037508074055	-1.091182283476298	12.43988326932774	-1.034667914552946	2.953353498646729	-5.727079928675156	8.717158802315582	8.717158802319283	0.3889778859885901	0.04808702551443958	0.8648976319271464	-0.8659403708711988	-3.518873360027764e-08	2.809253893426933e-07	-7.571910718702204e-08	4.236125187497895e-08	3.740297162818394e-08	8.889214791468518e-08	2.660025292709229e-08
0.01	-0.159878211110716	0.05828258397874644	0.897928633829352	0.3780983011093105	-0.2594334098273403	-0.2686791095462377	-0.01293770607988304	0.03266185450672865	0.03266185450672862	-0.1745183391371558	0.1705725604784452	-0.04227499786586721	-0.009598517472967387	-0.04210514978627182	-0.02114435623459407	-0.01065317070013435	0.1204816160381243	-0.01077854349537051	0.02883670191975298	-0.05698335099283167	0.08464466050237077	0.08464466050238	0.002339319375589501	0.0003504783543007104	0.007516511512414071	-0.009334665245094615	0.1428055643817351	-0.08060325458583086	-0.04923176340137087	-0.2943573973412326	0.2910847293000012	-0.0357542749868628	-0.08856813067688862	51.437794235459	0.513448246942048	6.378586271657598	-0.8712331965651847	-591.6542750155188	-76.06739439016054	-38.96214192039015	-4.051102571050003	-2.112468749993293	-1.047584101768669	11.74950632351051	-1.116929506817299	2.805649738388186	-5.620577185478445	8.273651344085575	8.273651344084648	0.09947221181036213	0.0499153538866278	0.6593136665507108	-0.9921722999264424	-4.553522291291714e-08	1.510165064862016e-07	5.308832121992916e-08	2.8591733470927e-08	-6.437250914008973e-08	3.597340268729496e-08	-3.8067910647047e-09
0.02	-0.1605005697732065	0.05796527990616247	0.8977696365784552	0.3798883927876219	-0.2595980028604298	-0.2682537546382809	-0.01378189209492395	0.03392077951524386	0.03392077951524385	-0.1744927375105763	0.170581383183242	-0.04216820270254892	-0.009742695708689708	-0.08199780144912824	-0.04232207522283822	-0.02111432693973716	0.236851454174478	-0.02225636458225616	0.05594625182945007	-0.1114312820213139	0.1667105878002516	0.1667105878002516	0.002401168689852406	0.00155644124855106	0.01360445325091503	-0.01966703843410321	0.1301361776630433	-0.08944401716687002	-0.04614810682399265	-0.2747390269527484	0.2597781790635426	-0.01589490158298532	-0.07926982155055122	42.19138830316119	-6.246471453903735	7.175281437892648	5.181760372888863	-590.7954778079808	-88.06713168694985	-38.9982030389582	-3.976215262927843	-2.126710058804076	-1.05277939136999	11.61752768897363	-1.17452343285471	2.607923096635551	-5.219995935805266	8.201412161417599	8.201412161417599	-0.06651612627431658	0.2191839335043672	0.57918367714452	-1.065481959653997	-5.588171222555663e-08	2.110762362970993e-08	1.818957496268803e-07	1.482221506687505e-08	-1.661479899083634e-07	-1.694534254009525e-08	-3.421383505650169e-08
0.03	-0.1615133407696629	0.05743738467948738	0.8975068435069529	0.3828240156024497	-0.2598782517267613	-0.2675638699356159	-0.01515820211359812	0.03598835288183596	0.0359883528818359	-0.1744725545545191	0.1706046888210499	-0.04200482783924953	-0.009992000868110829	-0.1204080529294236	-0.06312522237204393	-0.0314208291451742	0.3497736383085169	-0.03365260649308448	0.08196995263410778	-0.1634755622417521	0.2464383315763626	0.246438331576363	0.001780354249939766	0.003034862329272958	0.01911125362577658	-0.03004748103911687	0.1260296745333271	-0.08408301483609038	-0.04577577212142502	-0.2726257103086595	0.2597993667082205	-0.01950119978837059	-0.07563626929863383	42.09134817448332	-4.770929853019049	7.063617570412301	4.291234897286079	-590.9233930820461	-84.44010149535387	-39.05738474792143	-3.751185308397738	-2.037351973157751	-1.01610054360826	11.05463309501179	-1.101064731933834	2.590451654258622	-5.143370144394083	7.803599360063564	7.803599360063624	-0.03810509406475193	0.1016660343943953	0.5425365354932297	-1.002372417301952	-7.954922795296942e-08	7.013327137734199e-08	1.857738454060302e-07	4.178972301130772e-08	-2.767705877570576e-07	8.901876968570032e-09	-3.357397789559982e-08
0.04	-0.1629057653244859	0.05670541099528444	0.8971416824317006	0.3868738741224962	-0.2602682410445485	-0.2666155766085286	-0.01704430015032293	0.03884223246106026	0.03884223246106019	-0.1744542279411038	0.1706406776374726	-0.04178516330863426	-0.01034071985485747	-0.1579285131224127	-0.08313776672840847	-0.0415879276897208	0.4596985952182663	-0.04420445487339091	0.1076279767138751	-0.2133888856314362	0.3239718303267023	0.3239718303267027	0.002029900161426747	0.004093076971526478	0.02486238671408832	-0.03954980389920663	0.1219231714036103	-0.07872201250531087	-0.04540343741885766	-0.2705123936645709	0.2598205543528981	-0.02310749799375606	-0.0720027170467164	42.05887516817129	-3.306512440986071	6.952922820390469	3.303057051581022	-590.0187278783779	-80.72146211355657	-39.13818611325171	-3.798257005466593	-1.968589500235849	-1.024898659191903	11.01808224411571	-1.005644726750334	2.534787751657479	-4.793804569654454	7.762563156263351	7.762563156263258	0.1075559440056079	0.135142645810677	0.628050219834553	-0.8898580106692185	-1.034914040188312e-07	1.228482908900076e-07	1.870760786567718e-07	6.959716964333803e-08	-3.87575600390915e-07	3.637313698725712e-08	-3.22939784428897e-08
0.05	-0.1646683449200686	0.05577695542333597	0.8966753039335653	0.3920085675688382	-0.2607599703586225	-0.2654127998900782	-0.01941872515649138	0.04246207232043981	0.04246207232043971	-0.1744298060772255	0.1706859503633287	-0.0415065637435688	-0.01078047112847347	-0.1943336073402452	-0.1024489872787433	-0.05168182712051678	0.5667142605766055	-0.05405506283022886	0.1328266293065687	-0.2611705516240631	0.3997438246988361	0.3997438246988353	0.00289376039497623	0.004970007414219803	0.03090113370010962	-0.04830765735751242	0.1147898798741357	-0.0764205359117847	-0.04426937390753987	-0.2639268029074058	0.2521264130014758	-0.02106496491398453	-0.06635579102548304	39.7755936176866	-3.817913090622214	7.06199787104682	3.932242335626052	-588.8127843055757	-80.5885861013053	-39.23882944800587	-3.523571766417361	-1.896720130917598	-1.000822273017562	10.46441988490482	-0.961834245114185	2.497265222075634	-4.721513017335364	7.446676498587503	7.446676498587365	0.0817281673933825	0.06522220663438597	0.5983221430022021	-0.8548697757962203	-1.106491604828185e-07	1.537042404713879e-07	1.826693358101969e-07	7.787425258214703e-08	-4.327261448145298e-07	4.821640626961442e-08	-2.960178551456301e-08
0.06	-0.166787362685125	0.05465852128618708	0.8961081491035234	0.3981976399094058	-0.2613476188352577	-0.2639610644039008	-0.02226119990323984	0.04683206390772046	0.04683206390772045	-0.1743955601901389	0.1707402431862389	-0.04116626966763988	-0.01130502508914952	-0.2292161470171079	-0.1211334797684925	-0.06174319407107869	0.670574374063417	-0.06338828738561317	0.1574197302592759	-0.3069988337474318	0.4740021759069338	0.4740021759069322	0.003994704803076277	0.005897096382341721	0.03720128888678223	-0.05651034131121665	0.1076565883446609	-0.07411905931825846	-0.04313531039622191	-0.2573412121502409	0.2444322716500535	-0.01902243183421296	-0.06070886500424985	37.55222970709607	-4.3373098821482	7.16949959105796	4.470889461355929	-586.6831688085	-80.36807800576673	-39.35770161966416	-3.493746097272622	-1.843243888118713	-1.018392163145088	10.38697186981022	-0.9021680464596082	2.413677423660228	-4.403127795802771	7.459834523456096	7.459834523456111	0.1549727789157187	0.1451743508963524	0.680331859964811	-0.7788241097489054	-1.171002045425163e-07	1.836398081609246e-07	1.780222150226824e-07	8.532900441808354e-08	-4.751122905766606e-07	5.940165488938941e-08	-2.685013180831561e-08
0.07000000000000001	-0.1692489286780193	0.05335642394367186	0.8954403202530883	0.405410032032272	-0.2620263079111501	-0.2622669405295622	-0.02555113358007064	0.05193562166170306	0.05193562166170309	-0.1743502815389333	0.1708040893759538	-0.04076258770145322	-0.0119093353438867	-0.2629300632744883	-0.1391734254643696	-0.07183123306702337	0.7713445954126322	-0.07229919841990508	0.181261245346194	-0.3506032668664916	0.5462638643837813	0.5462638643837844	0.004964106161299159	0.006861649505248466	0.04347100778500645	-0.0643192810020171	0.1008540399773795	-0.07127179447497572	-0.04219133893082289	-0.2523325611800953	0.2389288173062741	-0.01811212328511606	-0.05525201177465854	35.95758542111494	-4.484184844863495	7.228025881306236	4.707530858184149	-584.9853234602183	-79.44254967127281	-39.49284721193407	-3.285172328574311	-1.767468263640595	-1.005403861711714	9.83811325110508	-0.8780264038229204	2.347794864998569	-4.281405857119029	7.042514770602024	7.04251477060274	0.05342823641346425	0.0705000154808931	0.5906709778441679	-0.7771124563183998	-1.285487586338773e-07	1.608760023816567e-07	2.155431697388965e-07	9.439464293722209e-08	-5.230882364266748e-07	4.855797713604295e-08	-3.479294380696573e-08
